<svg width="30" height="31" viewBox="0 0 30 31" fill="none" xmlns="http://www.w3.org/2000/svg">
<g id="circum:mail">
<path id="Vector" d="M24.2938 5.5813H5.70625C4.87745 5.5813 4.0826 5.91054 3.49654 6.49659C2.91049 7.08264 2.58125 7.8775 2.58125 8.7063V22.2938C2.58125 23.1226 2.91049 23.9175 3.49654 24.5035C4.0826 25.0896 4.87745 25.4188 5.70625 25.4188H24.2938C25.1226 25.4188 25.9174 25.0896 26.5035 24.5035C27.0895 23.9175 27.4188 23.1226 27.4188 22.2938V8.7063C27.4188 7.8775 27.0895 7.08264 26.5035 6.49659C25.9174 5.91054 25.1226 5.5813 24.2938 5.5813ZM5.70625 6.8313H24.2938C24.7669 6.82993 25.2228 7.00881 25.5688 7.33156C25.9147 7.65431 26.1248 8.0967 26.1563 8.5688C23.0688 10.2188 19.9688 11.8563 16.8688 13.5063C16.4494 13.7691 16.0056 13.991 15.5438 14.1688C15.1811 14.2404 14.8074 14.2339 14.4475 14.1498C14.0876 14.0658 13.7497 13.9061 13.4563 13.6813C11.6813 12.7438 9.90625 11.7938 8.14375 10.8563C6.71875 10.1063 5.26875 9.3438 3.84375 8.5813C3.87274 8.10719 4.08166 7.66205 4.42782 7.33679C4.77398 7.01154 5.23126 6.83073 5.70625 6.8313ZM26.1688 22.2938C26.1688 22.7911 25.9712 23.268 25.6196 23.6196C25.2679 23.9713 24.791 24.1688 24.2938 24.1688H5.70625C5.20897 24.1688 4.73206 23.9713 4.38043 23.6196C4.0288 23.268 3.83125 22.7911 3.83125 22.2938V10C6.78125 11.55 9.71875 13.125 12.6688 14.6875C13.1958 15.0107 13.7632 15.2629 14.3563 15.4375C15.2242 15.5787 16.1138 15.3963 16.8563 14.925C18.6688 13.975 20.4688 13.0125 22.2813 12.0625C23.5813 11.3625 24.8688 10.6875 26.1688 10V22.2938Z" fill="black"/>
</g>
</svg>
