<svg width="30" height="31" viewBox="0 0 30 31" fill="none" xmlns="http://www.w3.org/2000/svg">
<g id="mdi-light:phone">
<path id="Vector" d="M24.375 28C24.8723 28 25.3492 27.8025 25.7008 27.4508C26.0525 27.0992 26.25 26.6223 26.25 26.125V21.75C26.25 21.2527 26.0525 20.7758 25.7008 20.4242C25.3492 20.0725 24.8723 19.875 24.375 19.875C22.9125 19.875 21.475 19.65 20.1 19.1875C19.7713 19.0837 19.4204 19.072 19.0854 19.1535C18.7505 19.235 18.4443 19.4068 18.2 19.65L16.4 21.45C13.2904 19.7529 10.7346 17.1971 9.0375 14.0875L10.825 12.3C11.3375 11.8125 11.525 11.0875 11.3 10.3875C10.85 9.025 10.625 7.5875 10.625 6.125C10.625 5.62772 10.4275 5.15081 10.0758 4.79917C9.72419 4.44754 9.24728 4.25 8.75 4.25H4.375C3.87772 4.25 3.40081 4.44754 3.04917 4.79917C2.69754 5.15081 2.5 5.62772 2.5 6.125C2.5 18.1875 12.3125 28 24.375 28ZM4.375 5.5H8.75C8.91576 5.5 9.07473 5.56585 9.19194 5.68306C9.30915 5.80027 9.375 5.95924 9.375 6.125C9.375 7.725 9.625 9.2875 10.1125 10.775C10.175 10.95 10.1625 11.2 9.9625 11.4L7.5 13.85C9.5625 17.8875 12.5875 20.9125 16.6375 23L19.075 20.5375C19.25 20.3625 19.4875 20.3125 19.7125 20.375C21.2125 20.875 22.775 21.125 24.375 21.125C24.5408 21.125 24.6997 21.1908 24.8169 21.3081C24.9342 21.4253 25 21.5842 25 21.75V26.125C25 26.2908 24.9342 26.4497 24.8169 26.5669C24.6997 26.6842 24.5408 26.75 24.375 26.75C13 26.75 3.75 17.5 3.75 6.125C3.75 5.95924 3.81585 5.80027 3.93306 5.68306C4.05027 5.56585 4.20924 5.5 4.375 5.5Z" fill="black"/>
</g>
</svg>
