<svg width="24" height="16" viewBox="0 0 24 16" fill="none" xmlns="http://www.w3.org/2000/svg">
<g id="evaMenuOutline0">
<g id="evaMenuOutline1">
<g id="evaMenuOutline2">
<path id="Vector" d="M22.7333 6.66666H1.26667C0.567106 6.66666 0 7.23377 0 7.93333V8.06666C0 8.76623 0.567106 9.33333 1.26667 9.33333H22.7333C23.4329 9.33333 24 8.76623 24 8.06666V7.93333C24 7.23377 23.4329 6.66666 22.7333 6.66666Z" fill="#1B1B1B"/>
<path id="Vector_2" d="M22.7333 13.3333H1.26667C0.567106 13.3333 0 13.9004 0 14.6V14.7333C0 15.4329 0.567106 16 1.26667 16H22.7333C23.4329 16 24 15.4329 24 14.7333V14.6C24 13.9004 23.4329 13.3333 22.7333 13.3333Z" fill="#1B1B1B"/>
<path id="Vector_3" d="M22.7333 0H1.26667C0.567106 0 0 0.567106 0 1.26667V1.4C0 2.09956 0.567106 2.66667 1.26667 2.66667H22.7333C23.4329 2.66667 24 2.09956 24 1.4V1.26667C24 0.567106 23.4329 0 22.7333 0Z" fill="#1B1B1B"/>
</g>
</g>
</g>
</svg>
